# xmcd
#
# Track frame offsets:
#	150
#	18051
#	37909
#	55711
#	75291
#	94256
#	112480
#	132074
#	156232
#	175726
#	194961
#	213591
#	243437
#
# Disc length: 4732 seconds
#
# Revision: 0
# Processed by: cddbd v1.5.2PL0 Copyright (c) Steve Scherf et al.
# Submitted via: EasyCDDAExtractor 10.0.6.1
#
DISCID=ab127a0d
DTITLE=에스지워너비(Sg Wanna Be) - 2008-Story In New York (Gm뮤직-2007)
DYEAR=2007
DGENRE=Ballad
TTITLE0=첫눈
TTITLE1=크리스마스 이야기
TTITLE2=들어주세요
TTITLE3=한여름날의 꿈
TTITLE4=세글자
TTITLE5=하지만
TTITLE6=그래도
TTITLE7=사랑한다 말해줘
TTITLE8=은
TTITLE9=가시리
TTITLE10=Holiday (원곡: 사랑아 잘가)
TTITLE11=지상에서 영원으로
TTITLE12=(data)
EXTD=
EXTT0=
EXTT1=
EXTT2=
EXTT3=
EXTT4=
EXTT5=
EXTT6=
EXTT7=
EXTT8=
EXTT9=
EXTT10=
EXTT11=
EXTT12=
PLAYORDER=
